<svg xmlns="http://www.w3.org/2000/svg" viewBox="0 0 720 370" role="img" aria-label="Constant-dividend DIV / MOD / SMOD throughput" class="fig" width="100%">
  <style>
  .fig {
    --f-surface: #fcfcfb;
    --f-ink: #0b0b0b;
    --f-ink2: #52514e;
    --f-muted: #898781;
    --f-grid: #e1e0d9;
    --f-axis: #c3c2b7;
    --f-before: #898781;
    --f-after: #2a78d6;
    --f-ref: #1baf7a;
    --f-ctrl: #898781;
    --f-good: #006300;
    --f-warm: #e34948;
    --f-warmink: #b3201f;
    --f-fs: 13px;
  }
  @media (prefers-color-scheme: dark) {
    .fig {
      --f-surface: #1a1a19;
      --f-ink: #ffffff;
      --f-ink2: #c3c2b7;
      --f-muted: #898781;
      --f-grid: #2c2c2a;
      --f-axis: #383835;
      --f-before: #a8a7a1;
      --f-after: #3987e5;
      --f-ref: #199e70;
      --f-ctrl: #a8a7a1;
      --f-good: #0ca30c;
      --f-warm: #e66767;
      --f-warmink: #e66767;
    }
  }
  .fig text { font-family: system-ui,-apple-system,"Segoe UI",sans-serif; }
  .fig .tnum { font-variant-numeric: tabular-nums; }
  </style>
<rect x="0" y="0" width="720" height="370" fill="var(--f-surface)"/>
<text x="118" y="30" fill="var(--f-ink)" font-size="16" font-weight="600">Constant-dividend DIV / MOD / SMOD throughput</text>
<text x="118" y="50" fill="var(--f-ink2)" font-size="12.5">before → after strength reduction, with evmone as an external reference</text>
<circle cx="125" cy="68" r="6" fill="none" stroke="var(--f-before)" stroke-width="2"/>
<text x="138" y="72" fill="var(--f-ink2)" font-size="12">before</text>
<circle cx="207.0" cy="68" r="6" fill="var(--f-after)"/>
<text x="220.0" y="72" fill="var(--f-ink2)" font-size="12">after (this PR)</text>
<path d="M 352.0 61 L 359.0 68 L 352.0 75 L 345.0 68 Z" fill="var(--f-ref)"/>
<text x="365.0" y="72" fill="var(--f-ink2)" font-size="12">evmone (reference)</text>
<line x1="118.0" y1="92" x2="118.0" y2="324" stroke="var(--f-grid)" stroke-width="1"/>
<text x="118.0" y="342" fill="var(--f-muted)" font-size="11" text-anchor="middle" class="tnum">0</text>
<line x1="193.3" y1="92" x2="193.3" y2="324" stroke="var(--f-grid)" stroke-width="1"/>
<text x="193.3" y="342" fill="var(--f-muted)" font-size="11" text-anchor="middle" class="tnum">1000</text>
<line x1="268.7" y1="92" x2="268.7" y2="324" stroke="var(--f-grid)" stroke-width="1"/>
<text x="268.7" y="342" fill="var(--f-muted)" font-size="11" text-anchor="middle" class="tnum">2000</text>
<line x1="344.0" y1="92" x2="344.0" y2="324" stroke="var(--f-grid)" stroke-width="1"/>
<text x="344.0" y="342" fill="var(--f-muted)" font-size="11" text-anchor="middle" class="tnum">3000</text>
<line x1="419.3" y1="92" x2="419.3" y2="324" stroke="var(--f-grid)" stroke-width="1"/>
<text x="419.3" y="342" fill="var(--f-muted)" font-size="11" text-anchor="middle" class="tnum">4000</text>
<line x1="494.7" y1="92" x2="494.7" y2="324" stroke="var(--f-grid)" stroke-width="1"/>
<text x="494.7" y="342" fill="var(--f-muted)" font-size="11" text-anchor="middle" class="tnum">5000</text>
<line x1="570.0" y1="92" x2="570.0" y2="324" stroke="var(--f-grid)" stroke-width="1"/>
<text x="570.0" y="342" fill="var(--f-muted)" font-size="11" text-anchor="middle" class="tnum">6000</text>
<line x1="118" y1="324" x2="570" y2="324" stroke="var(--f-axis)" stroke-width="1"/>
<text x="118" y="362" fill="var(--f-muted)" font-size="11.5">Mgas/s</text>
<text x="570" y="362" fill="var(--f-muted)" font-size="11.5" text-anchor="end">→ higher is better</text>
<text x="104" y="124.0" fill="var(--f-ink)" font-size="13" text-anchor="end">DIV</text>
<line x1="349.8" y1="120.0" x2="523.2" y2="120.0" stroke="var(--f-after)" stroke-width="3" stroke-linecap="round"/>
<path d="M 486.2 111.0 L 494.2 120.0 L 486.2 129.0 L 478.2 120.0 Z" fill="var(--f-surface)"/>
<path d="M 486.2 113.0 L 492.7 120.0 L 486.2 127.0 L 479.7 120.0 Z" fill="var(--f-ref)"><title>DIV — evmone reference: 4888 Mgas/s</title></path>
<circle cx="349.8" cy="120.0" r="8.5" fill="var(--f-surface)"/>
<circle cx="349.8" cy="120.0" r="6.2" fill="var(--f-surface)" stroke="var(--f-before)" stroke-width="2.2"><title>DIV — before: 3077</title></circle>
<circle cx="523.2" cy="120.0" r="8.5" fill="var(--f-surface)"/>
<circle cx="523.2" cy="120.0" r="6.2" fill="var(--f-after)"><title>DIV — after: 5379 (1.75×)</title></circle>
<text x="523.2" y="108.0" fill="var(--f-ink)" font-size="12" font-weight="600" text-anchor="middle" class="tnum">5379</text>
<text x="349.8" y="139.0" fill="var(--f-ink2)" font-size="11" text-anchor="middle" class="tnum">3077</text>
<text x="706" y="124.0" fill="var(--f-good)" font-size="12.5" font-weight="600" text-anchor="end" class="tnum">1.75×</text>
<text x="104" y="180.0" fill="var(--f-ink)" font-size="13" text-anchor="end">MOD</text>
<line x1="299.1" y1="176.0" x2="503.9" y2="176.0" stroke="var(--f-after)" stroke-width="3" stroke-linecap="round"/>
<path d="M 482.0 167.0 L 490.0 176.0 L 482.0 185.0 L 474.0 176.0 Z" fill="var(--f-surface)"/>
<path d="M 482.0 169.0 L 488.5 176.0 L 482.0 183.0 L 475.5 176.0 Z" fill="var(--f-ref)"><title>MOD — evmone reference: 4832 Mgas/s</title></path>
<circle cx="299.1" cy="176.0" r="8.5" fill="var(--f-surface)"/>
<circle cx="299.1" cy="176.0" r="6.2" fill="var(--f-surface)" stroke="var(--f-before)" stroke-width="2.2"><title>MOD — before: 2404</title></circle>
<circle cx="503.9" cy="176.0" r="8.5" fill="var(--f-surface)"/>
<circle cx="503.9" cy="176.0" r="6.2" fill="var(--f-after)"><title>MOD — after: 5123 (2.13×)</title></circle>
<text x="503.9" y="164.0" fill="var(--f-ink)" font-size="12" font-weight="600" text-anchor="middle" class="tnum">5123</text>
<text x="299.1" y="195.0" fill="var(--f-ink2)" font-size="11" text-anchor="middle" class="tnum">2404</text>
<text x="706" y="180.0" fill="var(--f-good)" font-size="12.5" font-weight="600" text-anchor="end" class="tnum">2.13×</text>
<text x="104" y="236.0" fill="var(--f-ink)" font-size="13" text-anchor="end">SMOD</text>
<line x1="248.3" y1="232.0" x2="447.4" y2="232.0" stroke="var(--f-after)" stroke-width="3" stroke-linecap="round"/>
<path d="M 486.7 223.0 L 494.7 232.0 L 486.7 241.0 L 478.7 232.0 Z" fill="var(--f-surface)"/>
<path d="M 486.7 225.0 L 493.2 232.0 L 486.7 239.0 L 480.2 232.0 Z" fill="var(--f-ref)"><title>SMOD — evmone reference: 4894 Mgas/s</title></path>
<circle cx="248.3" cy="232.0" r="8.5" fill="var(--f-surface)"/>
<circle cx="248.3" cy="232.0" r="6.2" fill="var(--f-surface)" stroke="var(--f-before)" stroke-width="2.2"><title>SMOD — before: 1729</title></circle>
<circle cx="447.4" cy="232.0" r="8.5" fill="var(--f-surface)"/>
<circle cx="447.4" cy="232.0" r="6.2" fill="var(--f-after)"><title>SMOD — after: 4373 (2.53×)</title></circle>
<text x="447.4" y="220.0" fill="var(--f-ink)" font-size="12" font-weight="600" text-anchor="middle" class="tnum">4373</text>
<text x="248.3" y="251.0" fill="var(--f-ink2)" font-size="11" text-anchor="middle" class="tnum">1729</text>
<text x="706" y="236.0" fill="var(--f-good)" font-size="12.5" font-weight="600" text-anchor="end" class="tnum">2.53×</text>
<text x="104" y="292.0" fill="var(--f-ink)" font-size="13" text-anchor="end">SDIV</text>
<line x1="244.0" y1="288.0" x2="244.2" y2="288.0" stroke="var(--f-ctrl)" stroke-width="3" stroke-linecap="round"/>
<path d="M 486.9 279.0 L 494.9 288.0 L 486.9 297.0 L 478.9 288.0 Z" fill="var(--f-surface)"/>
<path d="M 486.9 281.0 L 493.4 288.0 L 486.9 295.0 L 480.4 288.0 Z" fill="var(--f-ref)"><title>SDIV — evmone reference: 4897 Mgas/s</title></path>
<circle cx="244.0" cy="288.0" r="8.5" fill="var(--f-surface)"/>
<circle cx="244.0" cy="288.0" r="6.2" fill="var(--f-surface)" stroke="var(--f-before)" stroke-width="2.2"><title>SDIV — before: 1672</title></circle>
<circle cx="244.2" cy="288.0" r="8.5" fill="var(--f-surface)"/>
<circle cx="244.2" cy="288.0" r="6.2" fill="var(--f-ctrl)"><title>SDIV — after: 1675 (unchanged)</title></circle>
<text x="244.2" y="276.0" fill="var(--f-ink)" font-size="12" font-weight="600" text-anchor="middle" class="tnum">1675</text>
<text x="244.0" y="307.0" fill="var(--f-ink2)" font-size="11" text-anchor="middle" class="tnum">1672</text>
<text x="706" y="292.0" fill="var(--f-muted)" font-size="12.5" font-weight="600" text-anchor="end" class="tnum">unchanged</text>
</svg>